<mxfile host="65bd71144e">
    <diagram id="2qli9HBh3hFZE_iEpItv" name="Page-1">
        <mxGraphModel dx="894" dy="436" grid="1" gridSize="10" guides="1" tooltips="1" connect="1" arrows="1" fold="1" page="1" pageScale="1" pageWidth="850" pageHeight="1100" math="0" shadow="0">
            <root>
                <mxCell id="0"/>
                <mxCell id="1" parent="0"/>
                <mxCell id="2" value="" style="rounded=0;whiteSpace=wrap;html=1;" parent="1" vertex="1">
                    <mxGeometry x="56" y="257" width="660" height="200" as="geometry"/>
                </mxCell>
                <mxCell id="3" value="Global Execute Context (GEC)" style="text;html=1;align=center;verticalAlign=middle;resizable=0;points=[];autosize=1;strokeColor=none;fillColor=none;fontSize=14;" parent="1" vertex="1">
                    <mxGeometry x="70" y="210" width="210" height="30" as="geometry"/>
                </mxCell>
                <mxCell id="4" value="&lt;font style=&quot;font-size: 14px;&quot;&gt;&lt;br&gt;&lt;/font&gt;&lt;ol style=&quot;font-size: 14px;&quot;&gt;&lt;li style=&quot;&quot;&gt;&lt;font style=&quot;font-size: 14px;&quot;&gt;&amp;nbsp;first line&amp;nbsp; execute -&amp;nbsp; this&amp;nbsp; print window object&lt;/font&gt;&lt;/li&gt;&lt;li style=&quot;&quot;&gt;&lt;font style=&quot;font-size: 14px;&quot;&gt;&amp;nbsp;second line execute - print window object&lt;/font&gt;&lt;/li&gt;&lt;li style=&quot;&quot;&gt;&lt;font style=&quot;font-size: 14px;&quot;&gt;execute - firstname&amp;nbsp; print the : undefined&lt;br&gt;&lt;/font&gt;&lt;/li&gt;&lt;li style=&quot;&quot;&gt;&lt;font style=&quot;font-size: 14px;&quot;&gt;execte - firstName assign value &quot;suraj&quot;&amp;nbsp;&amp;nbsp;&lt;/font&gt;&lt;/li&gt;&lt;li style=&quot;&quot;&gt;&lt;font style=&quot;font-size: 14px;&quot;&gt;&amp;nbsp;execute - print the firstName : suraj&lt;/font&gt;&lt;/li&gt;&lt;/ol&gt;" style="rounded=0;whiteSpace=wrap;html=1;align=left;" parent="1" vertex="1">
                    <mxGeometry x="56" y="297" width="390" height="160" as="geometry"/>
                </mxCell>
                <mxCell id="5" value="&lt;div style=&quot;font-size: 14px;&quot;&gt;wiindow : { }&lt;/div&gt;&lt;div style=&quot;font-size: 14px;&quot;&gt;this : window&lt;/div&gt;&lt;div style=&quot;font-size: 14px;&quot;&gt;firstName : undefined&lt;/div&gt;&lt;div style=&quot;font-size: 14px;&quot;&gt;&lt;br&gt;&lt;/div&gt;&lt;div style=&quot;font-size: 14px;&quot;&gt;after 4 line execute&amp;nbsp;&lt;/div&gt;&lt;div style=&quot;font-size: 14px;&quot;&gt;firstName : suraj&lt;/div&gt;&lt;div style=&quot;font-size: 14px;&quot;&gt;&lt;br&gt;&lt;/div&gt;&lt;div style=&quot;font-size: 14px;&quot;&gt;&lt;br&gt;&lt;/div&gt;" style="rounded=0;whiteSpace=wrap;html=1;align=center;" parent="1" vertex="1">
                    <mxGeometry x="446" y="297" width="270" height="160" as="geometry"/>
                </mxCell>
                <mxCell id="7" value="&lt;font style=&quot;font-size: 14px;&quot;&gt;Code Execution Phase (CEP)&lt;/font&gt;" style="text;html=1;align=center;verticalAlign=middle;resizable=0;points=[];autosize=1;strokeColor=none;fillColor=none;" parent="1" vertex="1">
                    <mxGeometry x="81" y="267" width="210" height="30" as="geometry"/>
                </mxCell>
                <mxCell id="8" value="&lt;font style=&quot;font-size: 14px;&quot;&gt;Global Memory&lt;/font&gt;" style="text;html=1;align=center;verticalAlign=middle;resizable=0;points=[];autosize=1;strokeColor=none;fillColor=none;" parent="1" vertex="1">
                    <mxGeometry x="526" y="267" width="120" height="30" as="geometry"/>
                </mxCell>
                <mxCell id="9" value="01. Javascript code Work :" style="text;html=1;align=center;verticalAlign=middle;resizable=0;points=[];autosize=1;fontSize=14;" parent="1" vertex="1">
                    <mxGeometry x="40" width="190" height="30" as="geometry"/>
                </mxCell>
                <mxCell id="11" value="" style="shape=image;verticalLabelPosition=bottom;labelBackgroundColor=default;verticalAlign=top;aspect=fixed;imageAspect=0;image=data:image/png,iVBORw0KGgoAAAANSUhEUgAAAMIAAABpCAYAAABoOvwcAAAAAXNSR0IArs4c6QAAAARnQU1BAACxjwv8YQUAAAAJcEhZcwAADsMAAA7DAcdvqGQAABWJSURBVHhe7Z0LcBVVmsf/u1qiJt5cCUluBqkEuRZDZCCBKBNEM5kQi2xYp5bwKJedUWp5aIlbMw6OLA+LGiIbR3dmasVSJmw5OhMtkWD5yISamIkoQqFCgvKQIkAwMHlBuLkmKpbW7ne6T/ft7tvd997k3pDA96tquKcfJ/043znfd/r8+/xDVlbW/4FhrnD+Uf7PMFc0bAgMQ7AhMAzBhsAwBBsCwxAj1BAq8dOGU1ivLAdRWiJXx4VibGl4Cg3K8jg2xTVvM8s2dKP12YsyFYkiZDxch+xpMulE5q9x6/o6zFi8VK6IniefPY13lstEIsnNQtlDGUiWSSu+e29H4d2jZCo6ku/OQdma2zE9V66IkRFqCKvxp+Lx2Fj8KlrlmvjRgBXFj6K4eCda5JqEsLwXa394DV59yPLAlYK8GR6ZHEoe2zEG6fO68XKxXJEQRsF/RwY6PuhEn1xjIjMDE8d34thfo60g4gO7RpeEi3hnXgAtO1LwmFwTN9ofx+GNpdhXvVWuiIGGJEzZcQ1mrujHMrkq7mR6MRancaxZpi0k/yAV+LgDHTIdLX1/PYLaTR9iv0O+kYj8Qu3Beqyf75cJILB3E55ZV6UmSqrx8OqZ8KopoOVVbFyxWv0tjsvdj6ruUiwrUOs307F0q0t3rEF+ikxS/ft2cQmaZMo1bx3hIpXiXOVU1NXLVRJfxUH974blHRXCRboD5yt/jTWWvB/Y8hQW6LfkC+wz7SOOm4PQHROY9xEu0do0D7JNrcFSZK8vR4ZMhehH69b56GwXrtGvcN0HNUCZtt8JHN24EkHlN+BZXIdJN6u/+z76DQ7vbFQTGtM2Y0bZBJlw2Aff4eVtZ5D+ThZm/0Gu0rkPT9fcg/Gn3kT5qhflutgQbs/E8wexy7bG92D6mpvQ+8IRtLSLNLUeD01FygfWAm7cT/z+PnzK+j4c048ViOPpenecQcoSbZ9O7N902mBo6vHuLYJiBOn4uFK4IeoSKshUCKmgBrZr28hN8S/CwxWGuoTSy9Lq1O3bW+AtWIg8uclXsRL53VS4Zb4bTQU1irzdoPNeVtBFhV89vmpvOubuqJY3YnAUVzyOBWlN2KS4T49i015gxuqVeEBuf2ALGUHLTmVbcWWT0vy3bDcayncoyvkSLQetPvBWtIqafOtHdIwo4PRbWYQRyF2IjLI5+GqrWP8btAYmYNycIrkFCFarxxw9KVeYIEMr85FRafmW2hiB4Co0Hrke/qkJcE0iuD3Jd98E36kzhoJ8EX09tD7dLV4IUsH+kFqDzxxakWRMXCKMRuxzEMd66Rz0+EMYyveR/PFBN0OgGrvET7X45rDaVuCrKEV27x7UPydXCL9dFPacH4UKHG2v0mrx5/aTP58OnzH49E/XDcNIVHm7kJfrR+v2kGF1rKtDa8pk5A068C3GwoIb0FL/MkUSKg3rXsa+3izkPShSxcijpqClWW6t/xCHe+l6xhrbh2+R7rkeXSdkMkY6azXDaETgeD+SU0M1fGSSMGZqyHCcqPr7NUDatzbu0YtYVV4+4NZAuD3Jpy44FNhR8N2SjI6jWvum0ndeiyREoZXBcOZ1VLz70WeoINzo+IvWSlxEx/E+umfSEHJ9mEhu2n4yTBdDmIAx5LYEzmotgA3dbTH7chod66bi7RY/5sren7DafsB5L4MvDcier/UqiWURsuXWwfMFzjtG0adxngq+P1dGmyW349aUL3B4l+GAYjIE+XNooRaHWhvc9ivMEL1KbgH5iasR9Hxrce8GiwcT84Fj75oLuo4slNbYoa9LGDsVXIotUno6Aa116P3aPtgeIC6GcALn6KG6kjbOVEP7xsb2iJtWhFyfQMEaszEMMu9W3a3SlvA4YmDcgFRTCclCqiHO+byb/vPPUbtfV1N7t/dlc4zRcDW65M8hRwukaWn+yIdJTsYw4Vt4glfHt9cs90b4es+jw6EW903KQN/xQHjh7qQCP/o6+EQQfbQDvaleJGdci+Ser4bKEKrQdCRINWu9rfvSsesQAikzUaK4BIJKlFBw2lq/eAA1udnoBpe3+3nrFK7FSzU1qHlhLe6UqyLTgCYqHf6SfyUnSKW44g74e5uwTbhxtL7UfxqvyfhBLD9ZZy1OZAjBL5Hu5NG0f06N/gSMjvS+YJBc7HK+k8u+9w21yFfTnbQiguVY75lg8F2myan9ONtMMQNSMXFSErlMcYhhhJGlpMKXGUWvkbn3xb3XyLRNBNolXaiapxVeYw+PtceIsPYKRcrb0JOlEqSgPlTrW89biVf0cyGEIfzHNCQFD+D3S57A+3I1HlyJhvlZMqFh7vUx9xqJgr8Zz8uUeZtK394tJoNQeo1yrscTC5NsChth6t2x9hqVovWAumXUnO3ITd0pu0rte530niFLj1EoX5nUces1uhNrX/g5pnn6ceB/foYndsnVkaCCXrjkWhwz9daEEC/DClPPoPYVO7dJ9gqd+kzdLl7G/RMZ1V9kT5JMm9F6j8J7nax/S0nnJ0fRfcpED7UIb6wejTqDYajr/Dhs6mK9iHd2UpHYYVfYLjHLe9E6+2pHI73v6Rrck2qpPCIQW5fppcG9+5SJDf/osGEDxYV+WteDz03xySjM3uGFf14vnpRrhgXF/fhk3jfYs8XGCO5/GjXkFsVqBIKOVz50MAKB6P68tEYg4BYhzoS7RmbXyYj9i7VLhxhrNP3gMGylhgA2BIYh2DViGIINgWEINgSGIdgQGIZgQ2AYYoQawpUo1dSQ1z7YYeXizX1DhGEoMSCu5ZMN38lUIjGMQrVDvMVekxXzvRmhhnAZSzVHKFUbPOj64ZnEa54dRqlq+H6UNSCFG7tGl4TBSDVlJWAcNzUsGIXZTwnNc2LflotRqo6D9+DB2AHqnVmq6cgQSzWV603Hbut5GgYvwnhNYfdD3IvpOFTZhVnafbMONAwbrGi+L3lbTmGuvjk0iFGsn9VtfHYC9fmNqR+PP+kCKvXtdGn3TZiy4Sq5JoQyTmn8KbxZvgoDkvYMavCeFfOAPPcWQblxLNU0kjCpZn0bAlYFnwUhZlKvx+lB+zFXMSZ5z4xD2YWhGZ9l5R76eyFExTE3jQxHv2dA/mo1hmjvDsKbFp0S7rGDXnhyvrZRtw0ed7cngvAnDLMM1MUQWKoZTiKlmgZNhiGQVQRJUav1RC2uXfdqHKIgxztWLZJ582cCDs9SVDxWvUfHus34uNePyXRdHWdDUiLROqgVklAwBnHOGki5qNteXFWO8oG2Borb04eznzq4PRGEP3YYZaAuhsBSTXsSJdWsQke3B2OoBPkK0xGgQ7RKI9A9QIFzTNgUao2WLgQUxWAlJpM7FdBbhy50WA1LUeB9g3Fx/jZSuLDfSAThjwNGGaiLIbBU057ESTUVF2RsJfJygEPbuzCmcBkyKZZwrYzihmqEIdSKUEG4bSnpyHxwOrzd23AI1JKXjIO3twth5VIx9GvQpjWZccFe2K8jvpWU0omzDj1JjhhkoC6GwFLNcIZAqolxGNO9H01U+JCzEJPTXGrqGFCMTHct1RhM74iQblQ2uWRa5RPunorKiEx9VxXllY7JFG947VptF72zCJZral7C2kK5IloS1GWqIWSgrsGycF+UQFN3MQwuDBXKZyjg8uouyCJ4924y9SA4I3ocQnmub1ijBM56IB4pbxHEy/XZVJPlrxa/Qy/W7M476hdQQqqpvEwTPT83UCBsfrH2/IpH8Vp3HtbIl25rCnrw2jwZM1DsUNeShQVym7a8UWGsauV3g2aHf01O+OLeAvLlm0VcRYWz24/sFM39CN0zpefIv0i9ri2VYmNEFJ8fM7FMuR+ip838Dka0zm93a9vF3+jC23qPk6io/MjP6SIDVSsqr5/iRxuX7cmpAQSPXGurbjt5vp/+TcLEmbEpnh2F/QoRYgc32r9CX0oWGdkF1iPElctBqjkYhMLt0W9RN8fh/YhQuf1z+hDqnaPHtUVgYmSkSzUHBRn3o+fQZfuSUH79IlYjELR3YpeDEQiUb54O0ggE3CLEmZEs1RwM4loexmjbF2kjATYEhiHYNWIYgg2BYQg2BIYh2BAYhmBDYBhihBqCGHuvvgG9PKWaljfvprfH8trjNKx8RCBe1G1L4LxuxAg1hMtbqqloNRDSBoQLkhKEGLpiZ2DKsHCLQTrtmwgaklDXfQ5rY9Z3Rw+7RpcEd6mmMuL0yLsOb1MvlVQziECavX5kKHjsoZuwJ60jYZpolmo6MsRSTR31vviPWKWRlmsKux/qcUI6eShXk1ya54xwfJbWe60j75uyPR0te9Ppujarx4i8jPNfWPIWw+DVQZLiGU3HOTo2n849sPdVtOQsouduPDdLWbB91oTLJ+vv/M+X8PN8xD6EQ+LeIigXx1JNI4mbVVP6/mIkLhUIb8GasBgoslRTFSQJfbHY7+0WD/Lna+4M5e/0LMVoX7GOnpGiKpTbzc9E/P06BGxVgpQ3VXpaviIf8zB4P/JFOVDKwCLFWMW5+QvV55m3RR19rB6/CR+nOTzrP1yLFs+XKIqz6EfgYghkpSzVtJBIqaYW91BBoGNEba0WjBgFRVSbagW8qZkKtkngFCp8A0MMDTfqRDTo3I01eNizptp/u9xu0TgII5rsp5ZHP76KrtfpWTtrOd7/r5+hvHxgrYHAxRBYqmnP8J5Vs1XRMkieKzHEElRYK/cAeksTQbjkQNP2PfDmhmsghJZ5QPdbKN2oxTBpR0xf2jByFdq6gfTvxf9DYi6GwFJNe0bwrJqaC0SLKlwagDHUv4uWtFKUjpVpQvkChqjV9Xsda2+e8Vi56AZs5DuMo0qu6+/xH+HqYggs1QxnKKSaQ4PxyxQ6QqQf0YUUrksX/DmWismgX87bEkOLIAyrl1qEqJR2Tm6lGiyLqa2evl+uiBHXYJmlmkMr1XQndM8GItUM3TO5KIGzpSeN7vtryveMtP0cKhOKAQIpWo+cuN8iBgvJPGd174mhRSDDmqcGyMbzsw2Wl38Nf/B6NNp8GOD9dtWwx0++T/k/VliPEE+udKlmQnGb9paQ0wV3vVWOVX+U62LAtUVgYuSKlmomliefPYOZ3T4bIxBzP5OLOwgjEHCLEGeuVKlmQhFjjVYAzzhN0B4H2BAYhmDXiGEINgSGIdgQGIZgQ2AYgg2BYYhhbwhiHEvojaP5Tae27adhoyGZgXJXURlef2QWBjhSIcGMw38/ci9eLx8n0yEGe97D2xBKqrGgAIYx9JYhAYlCCFFshxdowxyM24SOIN66aWaoGd6G4E+Ht/eQ8ilyOzShSnTjm+JHoDddmVLpsiV4ASflz+FFG37521fwLzVtMm1hEOft/EJt2mbMKAOOblwJXQ8Vtm4psteXI0P5TZyswb7qrervzF/j1qWj0baxGaO1fQIfofmZxxGtBFuRJuYcMs8MqSBqYW2Eo0WOKBADzISMkAxkgSZBNMn/LNJAXcppzNeI9jfU48Yc2QNvDvCacl7iGKNc1JK3ECfJ8xfXswCHECiYSX+D/uZ2YK4Ye288N0UVqL2atrm2S4YH65aWYbo+1q4Nb/x2N5QRDT+YhddnXMDvth7Ge8o24cJMwYXqWlR0Gra/BSxfPAVJYpfTuw0F2pJ38BNLXrNws/JbYjo2GsTXuO/B+FNvonyV/Qxuzi3CgWZ0YgJGT5NpYlS6jwp7s24YnsW56NlYin3KUoPOm8uRbdhfiHsmrZ+Dr7bK7d7bkGnabo8m8lBGWRpGNYZGJGpqLpdx7+K41XKGyco9CPhLdffFWSYq8xX7m8bIWwrj2cXY3W0/XNlXsRB4TjtukzI5xwLDSEpvwWQyGqFC82OuMFbl3KRST7hkRjnl9i59ZstLzV1Fd2L6BSqAokZWFmkE0eKZgl8svhHviGOrP0F/1hSskzXoXUVTgLe0fGuxH1OwvEizCtkKyOWN03J1nHFxjbai/aN+ZExaKtNF8N4CtP5N1vhEsNrQWtD+PdQuJaUXybRKZ+18dCoD1e2326EJdhRtrqhRZYEM6aWjQdSmsoArY94tc4Q5yESjpamZCqmuBw7Rsa7EYDSqNsI0NWtLnb7dqq/wFU42z3z53DZ9ZsuI/HgDttXWota6PPPvcoc4kJU1iCA6iP3V0ng62/BZ0IMbpaThvcbdasuhEMR7J4JIGq0313HgRawqL3dsDQSuMcLFg0fQd3MuNVxEZhHG4AgCxtnjhKu0vk5fJpnaL8EJ9ByQP4lgdSkO72yUqQRjii3EmPdQLBFRJhoNopDafd5ECbTVfPVWLUrEZ1xCon2xGN23CPxtAxaWlaHMujz8v3KHwfFeYy3VxuPwE9FrQ8uf9Ro7SoKteM9Q2Cu2voJffiqTGbfizzJfsfwiL8a844B7sNzeiHMB1T0aNZWc4uONIf9exABlE6jG11yjUhwdnhGWLa4y0agQtX06ZlUYu/IoXqCYBLrw3v2LE3aERPuhJarOgCFoEf5Yo7kou9GZVxa7MdhCMQDFDWiq1d2f3zXFds/iQYReo0YEjveTO7OU3KIOtIXV5v34SmshqHUIbxFGAjbabGUW/Mguifp5k8lh3wPSP3igdP9GX1jEVye8BSsH1hWb4BbBTC8uWMuq50YZ0IrA1xLcRkHnOZkhtQ7L494iyKmrXGS5EQyB3KOdO9F/GwXBPaEgWaH9cbSdTEL2Uuka3dGD1qFqESJINd0JSR5198MoE1WgoFn5No+2j1Pe4vMm5M7IlEjXUwugH6d8FCuG2k18dUIJkLW/K5bhECyLwh1yXV5/pEwJnP+tUV7bp7sNblMZbty3O4ZuzDa8QS3AzSUybwqoP4t7i3BSNVzPRNzlMLUt6xGYEcX95fdidk9tyAijRMzxfE/qAfx+yRN4X64zErFFYJhhA7lNs7MMblQ0iCltyS1yMwIBtwjM8Ea8jCsJdUj0U1Ada2sQDWwIDEOwa8QwBBsCwxBsCAxDsCEwDMGGwDDECDUEoQHQ3rzGWx3Gs2oOO3hWTSei0CMMGJ5VM8zAtBG1PKsmE194Vs1Y4Vk1ZdJ+pkWrTDKEIvPUR35a8o4KnlVTv2/Kdp5VMyQdpCX0cNSx9zyrJs+qqeRNlZ6WL8+qKS6UZ9XkWTXDnjXV/sN6Vk2PmyHwrJr28Kyal9usmsl33+RmCDyrpj08q+blNavmKPhuSXYzBJ5VMxyeVVN1XS6jWTVzfZhILblrsCzcF55V0/xi7fkVPKvm5TSrpm9SBvqOB1iPEFd4Vs0EkoBZNTMzULjkWhzbFKFFYGKEZ9VMGAmZVbO9E7vICIS7zS1CnOFZNRMAz6rJMEMDu0YMQ7AhMAzBhsAwBBsCwxBsCAxDsCEwDMGGwDAEGwLDEGwIDAPg/wEGx0CRGdrvFQAAAABJRU5ErkJggg==;" parent="1" vertex="1">
                    <mxGeometry x="260" y="50" width="221.71" height="120" as="geometry"/>
                </mxCell>
                <mxCell id="14" value="OUTPUT :" style="text;html=1;align=center;verticalAlign=middle;resizable=0;points=[];autosize=1;strokeColor=none;fillColor=none;fontSize=14;" parent="1" vertex="1">
                    <mxGeometry x="75" y="485" width="90" height="30" as="geometry"/>
                </mxCell>
                <mxCell id="15" value="" style="shape=image;verticalLabelPosition=bottom;labelBackgroundColor=default;verticalAlign=top;aspect=fixed;imageAspect=0;image=data:image/png,iVBORw0KGgoAAAANSUhEUgAAAc0AAACkCAYAAAD1yXU7AAAAAXNSR0IArs4c6QAAAARnQU1BAACxjwv8YQUAAAAJcEhZcwAADsMAAA7DAcdvqGQAAELTSURBVHhe7Z1tbB3Vtff/T6VeVPU4OCf2RdTxSZ3HaR1M0AEVE+K8SNG1oyh8IHG+QGgNuMSoUoUUkqpXahUj9cO9SoiE+EIgofiqNP0Qx70SKIqtG4mQhMRUcFQwcYtvDHaiiNpxTHyqWy4fnmet/TKzZ86L5/ic4zfWTzqy97zsmdl79vrvtfbM7P/T0NDw/yAIgiAIwox8y/wVBEEQBGEGRDQFQRAEISIimoIgCIIQERFNQRAEQYiIiKYgCIIgREREUxAEQRAiIqIpCMICoh1tL/8ZXS8fQ51ZsjhZCtehr6HjMZOcJZtfoHL47R+x2aQXOyKagiAURN1zF8gIsiHMJgpd6DDrijW230y4/C6gbYNJChl491/g3jOdFHtf2l8ZOi3ycQNBEKLz2B/RtWEC3T//KUYoyQasPd6ProNdwIZj2P/MWoy81o/KZ3YBfffh+Am9mxAVFs0WTL3WjJ6LZtG8wUL0PCovLpx6ZK91K06he7IF7fVXvPswG4F7s4SIaAqCEBnuzftGVBvVdbGrOPvUozintmDY8BcmmsrAJStMihg95Rg7nV+tSQH+8awR9bcNGvpwvunUizj8UrdJ2fM3SSdfheoENMGudvfl464ZOgW02vNy9uWORetqtTR4Hfp82tCPkfpd5rjT+MgIpLqWhNrMIVy2WeDjNaRC4sDXthc4kS1vN0+z3cUrqGs115oeMGKUvSyDZZgDtwwYL09DaH1Gnmb9WI57SJ1LXtEsX+dDwrOCIESmMjaNqc/5PzZKbFBPYQzVqC4ynDjyUjO6nrpP//qumqWWLhy36+jXnapG03Ptas25MwNIJ5L+eNmGTagjEf/UGNpAvk+dwq3kTn/bx3Zi3SSJmrc+UzBvkdG268NCUduaxKdm3dnR1d454cSjall3alqnQ8SSu5QQ6W2Addu02J07yMu4PFlI7XFnEEzm8wmk4ytVGJLFUYfF66iuxjFuBZM7FuZcufy2BsKWFVhH9dej1r+Ij9CEraHQuidStM2MgsmYMlC/16iOzGINifGGaucaI+ZZAHXPtaB2tL8s3rqIpiAIhbGKBEX14qN7ksXBHo8/TsXeTixuTP7Fn2KABGuNMfJ1D64FUr2+0LDH4o1xsVfoCDyLTWIXLc98SIXziZGXmO/60s5xWPAiG34n35H3r3iCN2suXsOtWBVdWzuqJ6nD0UAivGEllqcnSIBpWZxE+Izvhapjqu19xqgctcfWjZ6fB+u1tpXKnMOceUKhhdGN8UkS6mf+jP22oxHGiO7s7q8ubE0icM2lRERTEITITKXJ2LVWYeApE/Zi4wzt0ZSLuuf2Yh0GlJfDhjTswZ0buopaFgoSiAfqWRSseJE3bEJ82qNhL86BhOKwWp7CGiWqi/UBnBGqF/pDXnYlevEpyPNeVYXY5LWSiNxYH3mf8V25BW4WaK/6PvRgr+7QvFA6gdv8AnWOyuRlMiKagiBE5oNhEqzRlOdhbd7WRB6Zny4HtfEKwBMA9iKcsU/mRC8ZdRIKDs1OOsZSCboNJ5uQnf43hA7/nh2tQOUqvUR5Y4mWsosolx+G33XEjQXQP49osOdWjTXbqjBFHYYx/r+BPOFJztV4dSYEzBReZ+x9cmj7+SxPRHOYnkRvlk+pqvA5h2/D3raJEBT8BPaGY2hKBD3rUiOiKQhCZNjInQWHNHXIM/gQjjGg5qEdDuuVwnvT45b2mC2YSoXHPLtJzKuxlZ/cdY2lCt3qMCDv2x6/go+cwTUep7PXYa/FCweyF9o37u3Lv6iels1XPYBkz9v1pLxr0ccMhnVJoC6S56zKjn9R32+sQG0CyuNnwV+eWI1bf9P5njuoPUXvmHHy2gMPDUWBOhYkbsv5vIr2Cu19Yn5cbyeihX4DZRtrQjvv75yP7hCUz8tk5OlZQRAWFOqhkzK8KrAQWMrXlhP2Gp3XlBY7IpqCIESGe/mlhse2fPRrDnXD+hWEchxvvuDrdEVzKV2bS7A+eYzRj0jMxzV/NvQ+3vj3DpMqHhFNQRDKDIfj3PcsXfj1ilfJG3Helwy927iUmJ2nOVP5LYQPIQQJvBcafkdzkSOiKQiCIAgRkQeBBEEQBCEiIpqCIAiCEBERTUEQBEGIyKIVzX2v96O//zj2mfRs4Dx6D+02qTLTdgi9/XzOvTjUZpZFoGFHJzo7H0GDSc8GzuPx5iqTWpjsPtRbcNmEUXm8XswdMZ9UYePjnXhkrUlmpQGPdPL9wL/HsbHaLC4b+3Cc79miypTzKK5eS81iaA/zy0E8/Jt3sbbeJIUAC0809x9Hf+8hBKVsNw71lrrh7cbdy4HJL06adDmh83+iHsOvtKClZScO9JjFc0IVqu4Ebk9OmPRck91ossCVusOSWBFD+uaoSS02qlBZMY2pnNXEgrkFOHcUR4/y7/c4P25WzYLsHQyuq+I6ohm03Y04JnFjTu/5fMx3eyiWKJ2rIqmvQQUmcHvYpBcd5RX9help3rqBoJQlEI8FG96Rp1mAOnDEpAuH8xzF4GGTLCdtD4EkE5dnYTiG3mYD+RaGTLpw2Bhfx/AVk5wXMo0mC5zbYTl5YGeRHQruBKUxfGkuOkFloLoKy3AbE7mEkCxAzfQgLpWwHjM6GCxw6Un4S4+go4Xa2dOzb2WoiyM2NlhEOy01C6E9FMMcnH9NNZaNpXDdJBcdLPrpK7heJtFfcK+ccA94D97EzgOO8ePQ5o4b2EmNl9d3JvmFrjRSrwSNLIdbGz85isnmTqhNwtuwF7vNmbAuncLRnQe0QPMxnk06c+cd1efA+zRP+tspuEe+CZOh4+eE87hnMGB8OET0wFQPfn/B6fGufQSd90+h5/fngebH0XYvf2NzGoOngl4F71t/tQdT97ehUX2GM7QN57O5xiQIMracpzpS9UY8vquRepKa6Y/NOTjH9s+IvZsHMOXlzR4/lS2ccpsJLtcngDcD23M+23FjJ3V6nDoZPdOCDrcTY8rt6M1Nps6demFCdUY54LTXkTLn6leoPme1TxzvBjpcetv4hdDxC4a9AFsnzHW843R4qrw6ZYLrVPmvHsbRt7N3j9S+lR/kWM/343Ykxk5HFjjdVjLLu/eu01S+8MvObSMKLqs9wO/eRfxZOqZa5pa7znu781JhoM6c+mZsnfM+m2462zG8bUbbmwWzaQ+W0L7XydN/iwQrXB9+eoLugVbgw1EkNlO+1wYxeGcj3RNuG9VRA5urf0y+f2jf/g9Qucuut/dJcB+Pa+8E7gltH5FhG2eipjOFh506u506gr6T/6ETW3qxu8X/Muz1/iTee8ckiOC+I3jvVzuV4PLyxpt+Pl46tRGtu4HB4bV4OFmB66kBVCSbsCw9gL5/20tdR6L+VbQ+ScvUns4xeTnte+m9arTacxrrxcmjL2TsYwlcSwlYcJ5mYgW0t8DGzYSKdq8nP5t7xbRsOwlqS8tRpNIx2NmBNDrcmtimjV8L9ZBPjznbqMYKatx6XcsZys96tMqQ2vAp/V5JAcntfphKbcfGwoQZCww57bsngdFPMo2ZChFxo318IzUXajJxqu4vJzBBy9ajjzzMHgxOV6AyMPyiw0s1m9tQ+aEO1b1zzdlGNXJQQzNhvHN0+3KevE4ZCDqXU2bdqUHg3vXUHA1qO264Zrwsl/eTEQnIA3kaGL5syq8fx/fTMuV5s0dDxp47E6qugPhdoaD8XbRv7XZ0rnjXq7PYCmNws9RZ2vOStAjWDx/V6/h+IanfzsdmzHZsqNX5qKhDGur71kXQsKMNic97dNmqny+K3NFpVXWq171zrQYPOONqDatrMJ0lNsv78RimEtuVW8x4ZvbwXPTQNLcVE2XhdmGGQ/g+Ze9/96HtJIqmTGNxI4wWLqsYks9yp9GUbTqOu034XQkmSLxVuet69SIKWdpgotkfilHbcb2a81H1X8i9lo0i2gMLoepI2n3px4Kp1lVWBOormK5A4/1AHx9rZSO1U27HZhUfs5PuW5tn4JjsRdK+u7ijyut5v2WoUmPXQ3iLtu/5mDJiobT7Z+1EFRYOV6IHEp5fJdXvPaqz6XFXMEFCqNed7B9BzcOvGmH6Cdb+Uguh3fekEUxet4zssZdPOB1rQiNeU8eqSVZj8I0BLZYMH5OFMdsx2QumfVsfHkcfr+P9ltfodcN71TLOk4XSnlMpBZNZYKLJjVlX+L71JEumMXpC2nMAHaonmju0yr1a3XvW4TptCMmINlPjOOP0hslAaCND655IYvKM0zPruUG3nT42N1y13f6HEL9Fhp1FOGLISY0b9Wfp0Svh0+NXDT+opJulUosmNbzrV6kRjJ/HW6bnmSsUw71T3YD9vPj/jffXUG/YMdaeMaZ1LY24fc7xSMcn6Ni6UbJgq+3WNqDyS2gRrqqknvKw7w2R+Tqwk4xdAeE6Lj9lDFX5pbUwekJ6BB0qrzyhVfZ0zPG8uiD27eDu9JtenXHHKmYM7O5De5C8xR6Tze8kbnDdmWOr7cg4303SqZapsOTswucuE1PTqLi3LfMhEzKUD6wkU0rrrOhtuXMQfZ5Hk3ucTYfntdFlLydsvDU6jBrw0vJC7Ud1Wujev4u8PSWMvpCePNChyzXPfT7qtRdui8ZIU5luqiWv07s/9qGx1rZB6iBti5MH5Hj4I5NGlP22qto9nR0LNYfws3U2ozP79kBbYv295A31u5EXi25zo3/NVn/cZsmrpP3AnWASuLeu8DLd+WxoYq+2BlvMfdBJXu5t5/yY6945+ftZwmIdRg9zuFGUGSDvrLGWvEP21BQHkagle6KU7yAebqkiQbNCSFwfx+1YtfbMt+wk4RvApayixJNgj2DU80g5bfJl4SOvkps7C+n1fsqfl926TuVPQvwwGVkWxt+ksJt/fA4njQeqoPO1Hqm3nyUs1qVngYkmN0D6wwbtiw4M3mJPkRre8pBB29+IRGDshWDvhYT0Xc9wOI1Z/e+KLDdm2wPmdSEvQ+XvH3PyC+DQPdRD/oSaMxnZXJ5jGH0Dnwa2ZXu4ghoDNpLHdQnDX3JDbUD9ypBAqnGsqWCjpe0SJKQfOAbXb1hhkeU8g4050N5U/qMYMo3y9iSwcTX18K6S6YhXKQOjRLwI2PCxKB666wY6qPzYU9x3TzwokKruwr3j3XionozmBT8054+DhkVWb2sFNfOBIG287fa8bt+OOG68TRdM56MiGUrEi2Piwu+VoPWRT8kG0RNP7nxwSNB6B/wLhMGz1E2AcL0WiYqUENSRwaXTunNK/9ffCgqk37F0UG0jhdO2LbnjoGGR5W2t15MlOqM6Ot72tA6HyAifpnbPHVaus2KfOSiiPYTaRgDVBh0xW7sejfY4HJ0x+3mdYLWM27EWV7fzwz+vAxQet/b2s4TFugSw6Ljjl1uSJOnmIaAsDwQtS671tq9pqKN15x3BcuB80uOwDvay3f9CaT3OuIyuS+/nC6tadpONsBbXwTeMl6l+m3DFnIM6ZqrXO19/P0tYrEvPwhJN1QCBxh3AZWosozcpcRctC4Vo3LDNvkMmvMMN1hXSDGG1ISQO3fFYjCuUbqiXe8QkisZYK6N/z3bEP9HpWP0ebFruGI2ZcI2KBzdYuiebKjGsxK8CiZYHsOzjS4Eepxeupf8bmnUIVxtgpyFlCKvtKXOYlcdAXMPghnob8MhmEsUPtfHmBo7V61F5VacrVrXiAfKG3AdPOPSW+WRzPrS4cfnhEplG9izIv7PRBA+n7nZTfeoORrgz43otjF9n+17X429eGJDwwrjEvtd5vO9d5Rmpe2fFdjTePK2N9fJN2JOcdDpbBIcRi3hNgsWTw2gVbly9QkcTssLGkTtRxgg37Ai9TpJRxy58Pxf4WojytuPYfs8NKhPthYPLJSCQXHe2TPfhkHnS2W17Ku14+Irld+v7g8OsPHaZtQ0StH4PBwve5lrQneVG6sgMqnqIof6JTYinTB0pZnGditm1B0xMYboigQa3HixuG+RwqzPmWfWDBCrMMIeNAPnLNNwhzYbb3lU6tB8tUXYjJ7O9b214k8cEeZzQETs+5jL7FCqtX091Nvhf2iudvjlN6zbqfUOwmMF6gFt60erNgfoT1NSTt8yeoHpgh4/lLFNQvWQM3jKZId/gfoQS+vJSdtH8xS9+ge9973smFYEYNTQjUCe/mEQimcRkyKvj5TzWpUKfX+htMxpzIH0Eg2M8DsPvSfKY52lqyNZwH0EHj61s43X8IwMfeiAlQUZeiaQKJ5G343g/M6IMlGNUPOhGndIiqcJ61HP1vUfNxCTdcmYcq37SiFu4YQXSQxi+xmMiHPrhMc93qEdmjfEQ3jp3HTWbTVioU7++4Ib5au6c0iKpDEYFblsDotBGtHBiZBIHdSiPw961SSRDHo0u1yQ6qfz34LJeF/ZMAumTuDyc9upsEwlgKu0L6pGnqX7N/cE/NcbmhJRjtdTw2Tjz+VB9ImCcLeEx8/yo8S8bcqNf26pR9NjxpitvqTFMLyRHv0AId3wIo9P++vqrTsiQCNd5EC04BVNLpakEizunQDIZ8v6pjFlMdRk34obpVIS9+ED68CBGTT3288NW7nMDPQfwJj8qoNogr+fxaPdhFboO05HhznIsFurIWKwoR6KI9jB+Hn0fk5CrffXPG0cmt+d6RSPaePmuSnxwahDTRkR975K8UbIyAY+Ttjjfz2OYfpjefQc7HHoNp4PXQ78dwbe3lc0rlHfIa7Sh0CerMdhPjciK3fBeXKI6a3zShEmfXIuxN3yv7/bJ16hlO2HU3/SSVTPrUldwu3anXs7jj16+jndJXitCHifwAt7jMcwWmyf9fvmqEWbtherQMRNOE5TfWLoOD5t9W3f/xKwoHWV/erarqwu1tbV48803cfbsWbP0m0PWp4GFhQ332Evx1GaJyPqk9TcO9jRL8YSzIBTHnIRnv/Wtb+HHP/4xfvazn6GystIs/WagwrvC4oBDiuwFLSDB1A8RlXgca5GhhgVUhEgEU5h/5sTTXLVqlUkB09PTyuu8fPmyWbLEYUOs3iUMvssmCHlRr0Po9wftu4GCIMw/cy6azJkzZ/CHP/zBpARBEARhcTCnT89OTEzgpZdeEsEUBEEQFiVzJprnz5/Hr3/9a6RSKbNEEARBEBYXcyKax44dw/Hjx/GPf/zDLBFc7vjXi/hRz39mf79oyzE09HyExJMmXQL4acyFNjWS/lxccVOgLW34+7L9i2PqM/W+4CI5V0EokLKL5ssvv4wLFy6YlJCNf1pBcjmScl4odqirRgxXcesNky4a95Nfcwh/A9R8Y3fBw0a/oI84lAb12cWlIDSHO9SXsEZrN5V4Oj9BmH/KLpo3b940/wnZacd3VgB/+/igSQe54+7q3II6K7J8PmwO4Bf0pz8fyvGCPkowBVrpCH8oY67g15Nyf56xBNN0zTmhLz8JwhJgwU0NVgwc4itoyizoaXeg9nsH2LxFfftx8MtGNK4MPurPeW+hZQraJjiFln7xuqAps+YLfpWhBegLnL+FPzXmTG0Vvk7nNQgmMI1SjrKd4CmTvOmwLH69qCmVckyBxgTK3eSphNVex4eVaLPHDU2TpEOahU2ZxWSdpsrivUKkCUx7xbCXmmXqK0bNAOJMvwRzXhnLFfYVJXNv8QEzpulinPWMsw3nm3eqvHLC5ZQxJZwgLH7m9OnZ8qLDjgVNmeXM4FGzuR7D/DmsikYkpnpoX7NCCQmLqtmPZ5xAI9Znmzl9HryTQsn8nqVFC6Y/tVXoOrn8+JNhtvzoFxTM7GWrP2LOny9jUbT7GnEk4cs9BZoRTPjTIAWm0+Lvf/KnzOzUTVx3d9I9oNcGyPjoeF7CH4N3UIKZewo5FV7lDyPYqa/oFxDM0JRZ1qtUE6rzNFxKKO2++p3e/NN0acHMPgWa/uxhzqnyyg1/PtL8KwhLiSUkmprZTJmlZx6gdWY2ir4LtNTuq2YwYFG134okT+xLnu5HZWMofMqs+SLze5aaquZWdV3+p9pIWL+0H5fOLD+ffGVrCH2Q3CPfFGgkxDx9lvf9VkJ9ozegrOR5Wk+Y6y6jM1DolFlE1hlXGBKoPFPIsVe7nT9A/rssnhWJbe4pswzhCQcM+abpyjsFmiH7VHlzwOEOHB2uR2cRH74XhIXI0hHNoqbM0uv8cTd/X/WxbHfSV/5lnfh1MZD7IaBMMeUyMp9vM2UbEDWPfGVrYEELzMsZIsssHpkfKa9Cwyr74WsjzM6sMKrusnQGCiaHeKkPiuebQi40nVyAsOC5U2YZeBw1nWd6smzTdIU/nm7FWHnJSvxzTZVXftiz5m8ut7TMUThYEOaIhSmaHAbrt7PqR8SdroeJOmWWsx0LhzL24X1zhP0sbCDm+mnL2R2TBc5/CIjHE72ZGwjXi2vYQWV07QMdRlWT89agPltIWpFv+iVaygKYB1cgvSnQGKfclScMO1VZWPy1oAY7Axy6LPy1h/wPAeWeQk7P1FKPh3J5VXmnzNICmJvs03QxuaZAyxD/jKnyiEKnklLtUm+v7j8uW2eZjyPegrDEWNCephtmmomwZxJM554iSHkoyrtkDynscfKYXJ8a21PTAJmfKzTWoM0LGWNcMxGcWqgVfV6YeehtKhMzDRn/1Fii51GHp1Fy3/PMN/2SZuKvo5j28g7NFUlkmwItXO5qqi3voaSg+GemmdlNmaXEy5lWrL/fTiA+wxRy4amv3E5fvimzDEc+GUUs2Wn2DU9ann2arnxToIXFP3dnoIBxThZi9Y9zz3vLHNQcsjm8bkFY5CzMp2e598rGRT5wnhPu6ed8wlMQolCuKdA433sGF9nrMYIQjQXmaZqvnohg5kQ9oUllJIIpzBoz/FGeKdB241BzIs/7poKwuFlS72kKgjB/cPRDvW9a4HuxgrCYENEUBEEQhIgsufc0BUEQBKFciGgKgiAIQkRENAVBEAQhIiKagiAIghCRkj4I1NTUZP4TBEEQhIXJwMCA+a9w5OlZQRAEQYiIhGcFQRAEISIimoIgCIIQERFNQRAEQYiIiKYgCIIgREREUxAEQRAiIqIpCIIgCBER0RQEYQHRjraX/4yul48h6tzYC5OlcB36GjoeM8lZsvkFKoff/hGbTXqxI6IpCEJB1D13gYwgG8JsotCFDrOuWGP7zYTL7wLaNpikkIF3/2Xce6ajYu/NMpWjiKYgCNF57I9or7+C7qfuQxf9uofXov2FLr1uwzHs/20Lpl47hTG9ZBZ0o+fnlPfPf4oRs2RxslSuo3jOHeR75VGcM+liYK+1Pd6P7tS0WeJT99xe1A2/qO5L9esbx7pt5t4sIfJFIEEQIsM9+cqL9+H4CU5xz/55rItdxdmAUWRvaRfQZ7ebGfYe2pMVJkWMnkLXQWvwdH48v7XGPx4b0a1wt9XnZM8xnG869SIOv9RtUvb8TdLJV8GdgGeaYFe7+/Jx1wydAlrteTn7Useiq3W1Whq8Dn0+bejHSP0uc9xpfPRaM3oummtJqM0cwmWbBT5eQypwHH1te4ET2fJ28zTbXbyCulZzrekBdCuxz16WwTLMgVsGjJenIbQ+I0+zfizHPaTOhTtvGXlWm/LU584iOuO5Foh4moIgRKYyNo2pz/k/FjI2qOxVVqO6yDDYyEvNjodw1Sy1dOG4XUe/7lQ1mp5rV2vOnRlAOpH0x8s2bEIdifinxtAG8n3qFG4ld/rbPrYT6yZJ1Lz1mYJ5i4y2XR82vrWtSXxq1p0dXe2dE048qpZl84aYWHKXEiK9DTxvSHtkXJ4spPa4Mwgm8/kE0vGVKlTJ4qjD4nVUV+MYt4LJHQtzrlx+WwOhzQqso/rrUetfxEdowtZQaN0TKdomkgiZMlC/16iOzGINCdoGFjezPmqeM8HHfI3E/xkOzWqxL7VgMiKagiAUxiobho3uSRYHew3+WBV7O7G4MfkXf4oBEqw1xsjXPbgWSPX6QsPehzfGxV6hI/AsNoldtDzzIRXOJ0ZeYr7rSzvHYcGLbKCdfEfev+IJ3qy5eA23YlV0be2onqQORwOJ8IaVWJ6eIAGmZXES4TO+F6qOqbb3GaNy1B6bDiu7113bqkOipQs1d2N8koSaxG2/7WiEMaJb0P3Fdf3MWoywGJNQL6fzzpl/EYhoCoIQmak0GbvWKgw8pcN+yjhDezTlgseq1mHAH0cNeXDnhq6iloWCBOKBehYFK17kDZsQn/ZoQmOtJBSH1fIU1pTxwZHyM0L1Qn/Iy65ELz4Fed6rqhCbvFYSkRvrI+8zvqukAqS96vvQg726Q2PHxYtgc8Nq6si8qu9Lrtu+q4jVbyquQ5IFEU1BECLzwTAJ1mjK87A2b2sij8xPl4PaeAXgCUAXtrpjn8yJXjLqJBQcmp3s10aTUYJuw8ksvi0B78pHh3/PjlagcpVeoryxREvZRZTLD8PvOuLGAuifRzTYc6vGmm1VmKIOwxj/30Ce8CTnarw654GYwuuMvU8ObT+f5YloDtOT6M3y1RoVPufwbdjbNhGCQp/A9iIQRN0/V5v/SouIpiAIkWEjdxYc0tQhz+BDOMaAmod2OKxXCu9Nj1vaY7ZgKhUe8+wmMa/GVg7NOWFIHbrVYUDetz1+BR85g2s8Tmevw16LFw5Unsq4ty//onpaNl/1AJI9b9eT8q5FHzMY1iWBukiesyo7/kV9v7ECtQkoj58Ff3liNW79Ted77qD2FL1jxslrDzw0FAXqWJiQZ/Feob1PzI/r7US00G+gbGNNaOf9zfmEr7M9OY6zZXh6WZ6eFQRhQaEeOuExtIIN+8JnKV9bTthr3DARfNJ1ESOiKQhCZLgHX2p4bMsn+KpAOY43X/B1uqK5lK7NJVifztO783TNnw29jzf+vcOkikdEUxCEMsPhOPc9Sxd+veJV8kac9yVD7zYuJWbnac5UfuahrAVE4L3Q8DuaixwRTUEQBEGIiDwIJAiCIAgREdEUBEEQhIiIaAqCIAhCRBataO57vR/9/cexz6RnA+fRe2i3SZWZtkPo7edz7sWhNrMsAg07OtHZ+QgaTHo2cB6PN1eZ1MJk96HegssmjMrj9WLuiPmkChsf78Qja00yKw14pJPvB/49jo3leXfbYR+O8z1bVJlyHsXVa6lZDO1hfjmIh3/zLtbWm6QQYOGJ5v7j6O89hKCU7cah3lI3vN24ezkw+cVJky4ndP5P1GP4lRa0tOzEgR6zeE6oQtWdwO3JCZOea7IbTRa4UndYEitiSN8cNanFRhUqK6YxlbOaWDC3AOeO4uhR/v0e58fNqlmQvYPBdVVcRzSDtrsRxyRuzOk9n4/5bg/FEqVzVST1NajABG4Pm/Sio7yivzA9zVs3EJSyBOKxYMM78jQLUAeOmHThcJ6jGDxskuWk7SGQZOLyLAzH0NtsIN/CkEkXDhvj6xi+YpLzQqbRZIFzOywnD+wsskPBnaA0hi/NRSeoDFRXYRluYyKXEJIFqJkexKUS1mNGB4MFLj0Jf+kRdLRQO3t69q0MdXHExgaLaKelZiG0h2KYg/OvqcaysRSum+Sig0U/fQXXyyT6C+6VE+4B78Gb2HnAMX4c2txxAzup8fL6ziS/0JVG6pWgkeVwa+MnRzHZ3Am1SXgb9mK3ORPWpVM4uvOAFmg+xrNJZ+68o/oceJ/mSX87BffIN2EydPyccB73DAaMD4eIHpjqwe8vOD3etY+g8/4p9Pz+PND8ONru5W9sTmPwVNCr4H3rr/Zg6v42NKrPcIa24Xw215gEQcaW81RHqt6Ix3c1Uk9SM/2xOQfn2P4ZsXfzAKa8vNnjp7KFU24zweX6BPBmYHvOZztu7KROj1Mno2da0OF2Yky5Hb25ydS5Uy9MqM4oB5z2OlLmXP0K1ees9onj3UCHS28bvxA6fsGwF2DrhLmOd5wOT5VXp0xwnSr/1cM4+nb27pHat/KDHOv5ftyOxNjpyAKn20pmeffedZrKF37ZuW1EwWW1B/jdu4g/S8dUy9xy13lvd14qDNSZU9+MrXPeZ9NNZzuGt81oe7NgNu3BEtr3Onn6b5FghevDT0/QPdAKfDiKxGbK99ogBu9spHvCbaM6amBz9Y/J9w/t2/8BKnfZ9fY+Ce7jce2dwD2h7SMybONM1HSm8LBTZ7dTR9B38j90Yksvdrf433S93p/Ee++YBBHcdwTv/WqnElxe3njTz8dLpzaidTcwOLwWDycrcD01gIpkE5alB9D3b3up60jUv4rWJ2mZ2tM5Ji+nfS+9V41We05jvTh59IWMfSyBaykBC87TTKyA9hbYuJlQ0e715Gdzr5iWbSdBbWk5ilQ6BufbvIQOtya2aePXQj3k02PONqqxghq3XtdyhvKzHq0ypDZ8Sr9XUkByux+mUtuxsTBhxgJDTvvuSWD0k0xjpkJE3Ggf30jNhZpMnKr7ywlM0LL16CMPsweD0xWoDAy/6PBSzeY2VH6oQ3XvXHO2UY0c1NBMGO8c3b6cJ69TBoLO5ZRZd2oQuHc9NUeD2o4brhkvy+X9ZEQC8kCeBoYvm/Lrx/H9tEx53uzRkLHnzoSqKyB+VygofxftW7sdnSve9eostsIY3Cx1lva8JC2C9cNH9Tq+X0jqt/OxGbMdG2p1PirqkIb6vnURNOxoQ+LzHl226ueLInd0WlWd6nXvXKvBA864WsPqGkxnic3yfjyGqcR25RYznpk9PBc9NM1txURZuF2Y4RC+T9n7331oO4miKdNY3AijhcsqhuSz3Gk0ZZuO424TfleCCRJvVe66Xr2IQpY2mGj2h2LUdlyv5nxU/Rdyr2WjiPbAQqg6knZf+rFgqnWVFYH6CqYr0Hg/0MfHWtlI7ZTbsVnFx+yk+9bmGTgme5G07y7uqPJ63m8ZqtTY9RDeou17PqaMWCjt/lk7UYWFw5XogYTnV0n1e4/qbHrcFUyQEOp1J/tHUPPwq0aYfoK1v9RCaPc9aQST1y0je+zlE07HmtCI19SxapLVGHxjQIslw8dkYcx2TPaCad/Wh8fRx+t4v+U1et3wXrWM82ShtOdUSsFkFphocmPWFb5vPcmSaYyekPYcQIfqieYOrXKvVveedbhOG0Iyos3UOM44vWEyENrI0Lonkpg84/TMem7QbaePzQ1Xbbf/IcRvkWFnEY4YclLjRv1ZevRK+PT4VcMPKulmqdSiSQ3v+lVqBOPn8ZbpeeYKxXDvVDdgPy/+f+P9NdQbdoy1Z4xpXUsjbp9zPNLxCTq2bpQs2Gq7tQ2o/BJahKsqqac87HtDZL4O7CRjV0C4jstPGUNVfmktjJ6QHkGHyitPaJU9HXM8ry6IfTu4O/2mV2fcsYoZA7v70B4kb7HHZPM7iRtcd+bYajsyzneTdKplKiw5u/C5y8TUNCrubct8yIQM5QMryZTSOit6W+4cRJ/n0eQeZ9PheW102csJG2+NDqMGvLS8UPtRnRa69+8ib08Joy+kJw906HLNc5+Peu2F26Ix0lSmm2rJ6/Tuj31orLVtkDpI2+LkATke/sikEWW/rap2T2fHQs0h/GydzejMvj3Qllh/L3lD/W7kxaLb3Ohfs9Uft1nyKmk/cCeYBO6tK7xMdz4bmtirrcEWcx90kpd72zk/5rp3Tv5+lrBYh9HDHG4UZQbIO2usJe+QPTXFQSRqyZ4o5TuIh1uqSNCsEBLXx3E7Vq098y07SfgGcCmrKPEk2CMY9TxSTpt8WfjIq+TmzkJ6vZ/y52W3rlP5kxA/TEaWhfE3KezmH5/DSeOBKuh8rUfq7WcJi3XpWWCiyQ2Q/rBB+6IDg7fYU6SGtzxk0PY3IhEYeyHYeyEhfdczHE5jVv+7IsuN2faAeV3Iy1D5+8ec/AI4dA/1kD+h5kxGNpfnGEbfwKeBbdkerqDGgI3kcV3C8JfcUBtQvzIkkGocayrYaGm7BAnpB47B9RtWWGQ5z2BjDrQ3lf8ohkyjvD0JbFxNPbyrZDriVcrAKBEvAjZ8LIqH7rqBDio/9hT33RMPCqSqu3DveDceqiejecEPzfnjoGGR1dtaQc18IEgbb7s9r9u3I44bb9MF0/moSIYS8eKYuPB7JWh95FOyQfTEkzsfHBK03gH/AmHwLHUTIFyvRaIiJQR1ZHDptO6c0v/1t4IC6XcsHVTbSOG0bUvuOGhYZHlb6/Vkic6ojo63Pa3DITLCp6ndc4eV66zYZw6KaA+hthFAtUFHzNauR6M9DkdnzH5eJ1gt43asxdXt/PDP6wCFx629/SxhsS4BLDru+OWWJEm6eQgoywNBy5Jrve1rGupo3XlHsBw4n/Q4rIO9bPe/UFqPMy6j69L7+cKqlt1kI6zFdfAN42Wq3yZcMeegjpnq9c7X388SFuvSs7BEUzVAoHEHcJkay+hNStxFy0IhGjdss++QCe9wg3WFNENYbQiJQ3c8FuMKpRvq5R4xiaIx1sro37Md8U90Ola/B5uWO0ZjJlyj4sENlu7JpkoMK/GrQKLlASz7+FKgx+mFa+n/hmYdwtUG2GlIGcJqe8ocZuUxENcwuKHeBjyymUTxQ228uYFj9XpUXtXpilWteIC8IffBEw69ZT7ZnA8tblx+uESmkT0L8u9sNMHDqbvdVJ+6gxHuzLheC+PX2b7X9fibFwYkvDAuse91Hu97V3lG6t5ZsR2NN09rY718E/YkJ53OFsFhxCJek2Dx5DBahRtXr9DRhKywceROlDHCDTtCr5Nk1LEL388FvhaivO04tt9zg8pEe+HgcgkIJNedLdN9OGSedHbbnko7Hr5i+d36/uAwK49dZm2DBK3fw8GCt7kWdGe5kToyg6oeYqh/YhPiKVNHillcp2J27QETU5iuSKDBrQeL2wY53OqMeVb9IIEKM8xhI0D+Mg13SLPhtneVDu1HS5TdyMls71sb3uQxQR4ndMSOj7nMPoVK69dTnQ3+l/ZKp29O07qNet8QLGawHuCWXrR6c6D+BDX15C2zJ6ge2OFjOcsUVC8Zg7dMZsg3uB+hhL68lF00f/GLX+B73/ueSUUgRg3NCNTJLyaRSCYxGfLqeDmPdanQ5xd624zGHEgfweAYj8Pwe5I85nmaGrI13EfQwWMr23gd/8jAhx5ISZCRVyKpwknk7Tjez4woA+UYFQ+6Uae0SKqwHvVcfe9RMzFJt5wZx6qfNOIWbliB9BCGr/GYCId+eMzzHeqRWWM8hLfOXUfNZhMW6tSvL7hhvpo7p7RIKoNRgdvWgCi0ES2cGJnEQR3K47B3bRLJkEejyzWJTir/Pbis14U9k0D6JC4Pp70620QCmEr7gnrkaapfc3/wT42xOSHlWC01fDbOfD5UnwgYZ0t4zDw/avzLhtzo17ZqFD12vOnKW2oM0wvJ0S8Qwh0fwui0v77+qhMyJMJ1HkQLTsHUUmkqweLOKZBMhrx/KmMWU13GjbhhOhVhLz6QPjyIUVOP/fywlfvcQM8BvMmPCqg2yOt5PNp9WIWuw3RkuLMci4U6MhYrypEooj2Mn0ffxyTkal/988aRye25XtGINl6+qxIfnBrEtBFR37skb5SsTMDjpC3O9/MYph+md9/BDodew+ng9dBvR/DtbWXzCuUd8hptKPTJagz2UyOyYje8F5eozhqfNGHSJ9di7A3f67t98jVq2U4Y9Te9ZNXMutQV3K7dqZfz+KOXr+NdkteKkMcJvID3eAyzxeZJv1++aoRZe6E6dMyE0wTlN5auw8Nm39bdPzErSkfZn57t6upCbW0t3nzzTZw9e9Ys/eaQ9WlgYWHDPfZSPLVZIrI+af2Ngz3NUjzhLAjFMSfh2W9961v48Y9/jJ/97GeorKw0S78ZqPCusDjgkCJ7QQtIMPVDRCUex1pkqGEBFSESwRTmnznxNFetWmVSwPT0tPI6L1++bJYscdgQq3cJg++yCUJe1OsQ+v1B+26gIAjzz5yLJnPmzBn84Q9/MClBEARBWBzM6dOzExMTeOmll0QwBUEQhEXJnInm+fPn8etf/xqpVMosEQRBEITFxZyI5rFjx3D8+HH84x//MEsEQRAEYfFRdtF8+eWXceHCBZMSsnHHv17Ej3r+M/tLuVuOoaHnIySeNOkSwK8wLLT5BPU3VoubN3Rpwx9l718c84Wql+wXybkKQoGUXTRv3rxp/hNy8U8rSC5HUs5XOBzqqhHDVdx6w6SLxv1O5hzCH842H6Zf8LDRL+jLR6VBfat4KQjN4Q71+cjR2k0lngNXEOafOX0QSMhGO76zAvjbxwdNOsgdd1fnFtRZkeWbm3MAf9Vm+vOhHF+1QQnmDS0d4a9LzRX8Tm/ubxqXYG7LOSf0uURBWAIsuPk0i4FDfAXNMwk9Vx3Ufu8Am7eoDyYPftmIxpXB9+M47y20TEHbBOed1F8rKWieyfmC3/9rAfoC52/h73M680GGr9N5d5AJzD2Yo2wneJ5Bbw5Ji18vah7CHPOGMoFyN3kqYbXX8WEl2uxxQ3ML6pBmYfNMMlnndrR4791qAnNFMuylZpkvklHTZjlzFsKcV8ZyhX2v19xbfMCMuS0ZZz3jbMP55p1ftpxwOWXMoyoIi58l5GnqsGNB80w6017VbK7HMH9DsqIRiake2tesUELComr242ma0Ij1WeYznA/vpFAyPwJt0YLpzwcZuk4uP/7Opi0/+gUFM3vZ6pk/+JufLIp2XyOOJHy55w01ggl/7sDAHJT80Wz+/qed75Dr7k66B/TaABkzdeQlPIOKgxLM3POuqvAqf03IzhdJv4BghuaZtF7lkad1XmkllHZf/SGM/HNbasHMPm+o/lZwzvllyw1/c9n8KwhLiSUXnp3NPJN6uh5aZ6Zw6rtAS+2+atofFlX7gWXyxL7kOfJUNobC55mcLzI/Aq2pam5V1+V/35SE9Us7I0Nm+fnkK1tDaBYPj3zzhpIQ85yT3kfPCfVh+4CykudpPWGuu4zOQKHzTBJZpyljSKDyzLvKXu12nrXjd1k8KxLb3PNMGsKz9BjyzW2Zd95QQ/b5ZeeAwx04OlyPziJmixGEhcjSEc2i5pnU6/xxN39fNcOEO1M6/7LOlr4YyP0QUKaYchmZb56asg2Imke+sjWwoAUmsw6RZeqrzJk9qtCwys4WYYTZmUpN1V2WzkDB5BAvNQtHvnlXQ3OwBggLnjvPpIHHUdN55vTMNrdleMYRK8bKS1bin2t+2fLDnjVPVNDSMkfhYEGYIxamaHIYrL8fx1WYKSLuHHdM1Hkmne1YOJSxD++bI+xnYQMx109bzu6YLHD+Q0A8nuhNd0S4XlzDDiqjax/oMKqa0b4G9dlC0op8cxbSUhbAPLgC6c0byjjlrjxh2Pk9w+KvBTXYGeDQZeGvPeR/CCj3vKt6erN6PJTLq8o7z6QWwNxkn9uSyTVvaIb4Z8wvSxQ6/6Jql3p7df9x2TrLfBzxFoQlxoL2NN0w00yEPZNgOve8espDUd4le0hhj5PH5PrU2J6aO8/8XKGxBm1eyBjjmongfHyt6PPCzENvU5mYuTv5p8YSPY86PPeg+55nvjkLNRN/HcW0l3dogmUi27yh4XJX81N6DyUFxT8zzcxunkklXs5cnP39x0kCmBnmXQ3PF+l2+vLNM2k48skoYslOs689piX73Jb55g0Ni3/uzkAB45wsxOof5573ljmoiddzeN2CsMhZmE/Pcu+VjYvMCpIT7unnfMJTEKJQrnlDOd97BhfZ6zGCEI0F5mmar56IYOZEPaFJZSSCKcwaM/xRnnlDd+NQcyLP+6aCsLhZUu9pCoIwf3D0Q71vWuB7sYKwmBDRFARBEISILLn3NAVBEAShXIhoCoIgCEJERDQFQRAEISIlHdNsamoy/wmCIAjCwmRgYMD8VzjyIJAgCIIgRETCs4IgCIIQERFNQRAEQYiIiKYgCIIgREREUxAEQRAiIqIpCIIgCBER0RQEQRCEiCxY0WzcuA1bH/y+SUXh+/jR1m3Ytk3/Avuu+hG2hpeVEpV/MxpNUhCE2dKOtpf/jK6XjyHqNJ8Lk6VwHfoaOh4zyVmy+QUqh9/+EZtNerGzZDzN7z+4Giv+9xrOnDmjfmff/8ysEQShlNQ9d4GMIBvCbKLQhQ6zrlhj+82Ey+8C2jaYpJCBd/9l3Humo2LvzRe6zPLSsmRE87t3fBtff/V3kwrx+Z9wVoRUEIrnsT+ivf4Kup+6D1306x5ei3ZrnDYcw/7ftmDqtVMY00tmQTd6fk55//ynGDFLFidL5TqK59xBvlcexTmTLgb2Wtvj/ehOTZslPptfeB7rJk+p+5J/Z7EL+59rN2tLR2m/CMRhyoY78MWZCxjMSDeieVslvpq8Ayvi31abfz35l4CQcUh25XdNgnDXf//Brfih2Q9I45o5RngfTfb16etncOFj/T/D6yq/uok74iugcv76Jv5y9k+wZ5TrmAp1bWY/RWi9ICxBuCdfefE+HD/BKe7Zk6GKXcXZgFFkb2kX0Ge3mxn2HtqTFSZFjJLxO2g9BZ0fT9Wp8Y/HRnQr3G31OdlzDOebTr2Iwy91m5Q9f5N08lVwJ+CZJtjV7r583DVDp4BWe17OvtSx6GpdrZYGr0OfTxv6MVK/yxx3Gh+91oyei+ZaEmozh3DZZoGP15AKHEdf217gRLa83TzNdhevoK7VXGt6AN1K7LOXZbAMc+CWAePlaQitz8jTrB/LcQ+pc+HOm5dn8HoVWculeObY04xhRcVt/IVDqEM3gXiNNw6oxA1+ePWa6zTe24wf3vGFt+7MdWDlRr3n4Hl/exZZvY0vXnr9X3Dza7MgRCy+DLeHzDZYgZp7zYo8x9SCafejH11LjuwFYUlRGZvG1Of8HwsZG1T2KqtRXWQ4ceSlZs9D6Oq7apZaunDcrqNfd6oaTcaDOHdmAOlE0h8v27AJdSTinxpDG8j3qVO4ldzpb/vYzoBnEvCGjGDeIqNt14eForY1iU/NurOjq71zwolH1bJs3hATS+5SQqS3AdZt00Zde2Rcniyk9rgzCCbz+QTS8ZUqVMniqMPidVRX4xi3gskdC3OuXH5bA6HNCqyj+utR61/ER2jC1lBo3RMp2mZGwWRMGajfa1RHZrGGBG5DtXONEfPMSzfGJytQ96D1LPkYJMqmXErJHIvm17j538aT+/x/8BXuwHdWcaIRld+ldWPZ/bTGSur/fHel95DPthpK/9N3UIrHer6evIo/KSPwGf7nf4E7vqNzzXfM7//zMnz771+Y/QThG8YqG4aN7kkWB3sR/lgVezuxuDGFF3+KARKsNcbI1z24Fkj1+kLD3oYd41LeqiPwLDaJXbQ88yEVzidGXmK+60s7x2HBi2z4nXxH3r/iCd6suXgNt2JVdG3tqCZ7hgYS4Q0rsTw9QQJMy+Ikwmd8b0sdU23vM0blqD02HVZ2r7u2VYdESxdq1gK37pk/5w6fGtEt5P46d5A7Rc+buiavc5jKYvJaic7ZZ9GMaXJo1fP6+OeEUcvFfBxTEBYyU2kydq1VGHjKhMHYOEN7NOWi7rm9WIcBfxw15MGdG7qKWhYKEogH6lkUrHiRN2xCfNqjCY21klAcVstTWKMM7WJ9AGeE6oX+kJddiV58CvK8V1UhViLBGOsj7zNe2vFB7VXfhx7s1SJXkod23IhEMz6gDlJ6stSSWRbRtN7j9/Gj/+uO+eXj7/jq629j2T9rL4/HEt1xyr9/9TViNXP7Ske+Y372P1+RF1pp1jWiOTC2KQhLlw+GSbBGU56HtXlbE3lkfroc1MYrHI+hC1vdsU/mRC8ZdRIKDs1O9vtjWkrQbTiZxbcl4F35aGN7drQClcp2GW8s0VJ2EeXyw/C7jrixAPrnEQ323KqxZlsVpqjDMMb/N1CnXwmG8epMCJgpvM7Y+9ReXOYT0RymJ9Gb5as1KnzO4duwt20iBLN+Apv2b0+OY6DosG8mpRXNz/+EL/7+baxo4JDmD3HH366FYtm5+Ax/+m8e4/yhCoXyWOJfJv1Rws/eP4trf49hpQ2V0i/aO5f23c0fYgWpWqxG79tsxy3zkPeYH19w1t2Fr4aiXqcgLG7YyPFTiTbkGXwIxxhQ89AOh/VK4b3pcUt7zBZMpcJjnt0k5tXY+sxajDhhSB261WFA3rc9fgUfOQ2Vx+nsddhr8cKB7IX2jXv78i+qp2XzVQ8g2fN2PSnvWvQxg2FdEqiL5DmrsuNf1PcbK1CbgPL4WfCXJ1bj1t90vucOak/RO2acvPaCH46hjgWJ23I+r6K9QnufmB/X24lood9A2caa0M772/NxQ/EbJtAdZTx4Fsh8moIgLCjUQyc8hlbipx4XAkv52nLCYsYitkRevxHRFAQhMtyLLzU8BuWjX3OoG34RseTzZtnSgK/TFc1ylOVCIFifztO783TNnw29jzf+vcOkikdEUxCEMsPhOPc9Sxd+veJV8kac9yVD7zYuJWbnac5Ufs67iQuEwHuh4Xc0FzkimoIgCIIQkUXzyokgCIIgzDcimoIgCIIQERFNQRAEQYhIScc0m5qazH+CIAiCsDAZGBgw/xWOPAgkCIIgCBGR8KwgCIIgREREUxAEQRAiIqIpCIIgCBER0RQEQRCEiIhoCoIgCEJERDQFQRAEISIimoIgCIIQkaUlmvuPo7+/H8f3m7QgCIsMnhrsz+h6+VhwJv9Fx1K4Dn0NHY+Z5CzhGU+iT6a98BFPUxCEgrCz56tfhij4s/IXa2y/mXD5XUDbBpMUQpjOiLnH9j/XbpYbeMJrta58Ir20RPNwB1paWtBx2KQFQSgtZJTa66+g+6n71GTD3cNr0f6CmRtywzHs/20Lpl47hTG9ZBZ0o+fnlPein39xqVxH8Zw7yPfKozhn0sVQ99xeNUE533tdrw0Ayb1eB0N15jZMoLvvql5QJkr/GT0OkW6zs48C6dRR7Dxwkv7bh+P9mzD5yk4c6OE1oTTvd88gTmM7tpvZVkfPWAHkbbfDz3UUp1s6cET9H16XRso7hiAIpYR7+ZUX78PxE5ziXj9PHn0VZwNGUU+ajD673cyoyZmTFSZFBCaiDk/C7B9PTXYMd1t9TvYcw/mmUy/i8EvdJmXP3ySdfBXcCXimCXa1uy8fd83QKaDVnpezL3s7ravV0vCE2nw+bejHSP0uc1x/EunAxM0e4bLNAh+vIRWa2JqvbS9wIlvebp5mu4tXUNdqrtWbNDp7WQbLMAduGTDhiahD6zPyNOvH8t5DwfPzUPti5nKbJSX2NHfjUHOcRKtFeXz804IZkdrtaPzE7HtmFInmQ5QjcwQdJj/+HU3FsemQXhNcdxSptFksCELJqYxNY+pz/o+FjA0We5XVqC4ynDjyUrP2HviX4Sl04bhdR7/uVDWaTFju3JkBpBNJPxS3YRPqSMQ/NUY0kO9Tp3ArudPf9rGdWDdJouatzxTMW2S07fqwUNS2JvGpWXd2dLV3TjjxqFrWnZrW6RCx5C5l6PU2wLptWuy0R8blyUJqjxvB8H8+gXR8pQqTszjqsHgd1dU4xq1gcsfCnCuX39ZAWL0C66j+etT6F/ERmrA1FFpXgmkiDDMKJmPKQP3IIwyaZRK7DdXONUbMM0yorueKEovmSdy4FUPy2X70eqJWAOkUTtvQKodadx6gHBkS495+9ZAP/zqTMcRWZHTJBEGYC1bZMGx0T7I42KPwx7HY24nFjcm/+FMMkGCtMUa+7sG1QKrXFxr2Osx+XcpbdQSexSaxi5Znjn9xPjHyEvNdX9o5DgteZMPv5Dvy/hVP8GbNxWu4Fauia2tH9SR1OBpIhDesxPL0BAkwLYuTCJ/xvVB1TLW9zxiVo/YCdVjZve7aVirzeH8JQ83dGJ8koX4my5ikxYhu7vKnTpvq1JTHm8xHycc0jzytvb43sUeL3Ov7zJrZs/vQHiSRwlHP0xR3UhDmg6k0GbvWKgw8pcN+yjhDezTlgsex1mHAH0cNeXDnhq6iloWCBOKBehYFK15kWE2IT3s0obFWEorDankKa5SoLtYHcEaoXugPeV6V6MWnZC03r6pCbPJaSURurI+8z/iu3AI3C7RXfR96sFd3aOy4eCQKD/+XkrI9CHTywE60vJJCevndJsTKxGA7iPted8ch85NYEQNu3TBe5z5sJ09TEIS554NhEqzRlNe737ytiTwyP10OauMVgCcAXdjqjn0yJ3rJqJNQcLhusl+LOaME3YaTWXxbAt6Vjw7/nh2tQOUqvUR5Y4mWsosolx+G33XEjQXQP49osOdWjTXbqjBFHYYx/r+BPOFJztV4dSYEzBReZ+x9cmj7+SxPRLOAkejN8tUaFT7n8G3Y2zYRgozjqYfN5k8wmRKLJj+U44dR+5+tx/DvbIj1CE6Th5jYptdtunk68vjjkbdJfGu3m3w3YTI1atYIgjCXsJE7Cw5p6pBn8CEcY0DNQzsc1iuF96bHLe0xWzCVCo95dpOYV2PrM2sx4oQhdehWhwF53/b4FXzk2Bwep7PXYa/FM8TshfaNe/vyL6qnZfNVDyDZ83Y9Ke9a9DGDYV0SqIvkOauy41/UVycqUEteCHv8LPjLE6tx628633MHtafoHTNOXnvgoaEoUMeCxG05n1dBXmE27H1iflxvJ6KFfpXg01+/fOhnBduG4tUDRqux1V1XQpbYJNThJ3QFQVhsqIdOeAytYMO+8FnK15YTFjN+FWSJvH6ztERTve4C53UUQRBKCffkSw2Pbfno1wj4XTz2wMpxvPmCr9MVzaV0bS7B+nSe3p2na/5s6H288e8dJlU8i180A++FyjuagrDw0A9uZB9P5NcrXiVvxHlfMvRu41Jidp7mTOVnHspaQATeCw2/o7nIWWLhWUEQBEEoH2V7elYQBEEQlhoimoIgCIIQERFNQRAEQYiIiKYgCIIgREREUxAEQRAiIqIpCIIgCBER0RQEQRCESAD/H+fDeJ5s6p1FAAAAAElFTkSuQmCC;" parent="1" vertex="1">
                    <mxGeometry x="110" y="530" width="500" height="177.87" as="geometry"/>
                </mxCell>
                <mxCell id="16" value="" style="endArrow=none;html=1;fontSize=14;exitX=0;exitY=0;exitDx=0;exitDy=0;" edge="1" parent="1">
                    <mxGeometry width="50" height="50" relative="1" as="geometry">
                        <mxPoint x="446" y="297" as="sourcePoint"/>
                        <mxPoint x="446" y="257" as="targetPoint"/>
                    </mxGeometry>
                </mxCell>
            </root>
        </mxGraphModel>
    </diagram>
</mxfile>